<mxfile host="app.diagrams.net" modified="2024-02-14T19:50:51.699Z" agent="Mozilla/5.0 (Windows NT 10.0; Win64; x64) AppleWebKit/537.36 (KHTML, like Gecko) Chrome/121.0.0.0 Safari/537.36" etag="kxWDtKYlMwNAPjHHfsZO" version="23.1.2" type="device">
  <diagram name="Page-1" id="13e1069c-82ec-6db2-03f1-153e76fe0fe0">
    <mxGraphModel dx="710" dy="1096" grid="1" gridSize="10" guides="1" tooltips="1" connect="1" arrows="1" fold="1" page="1" pageScale="1" pageWidth="1100" pageHeight="850" background="none" math="0" shadow="0">
      <root>
        <mxCell id="0" />
        <mxCell id="1" parent="0" />
        <mxCell id="7baba1c4bc27f4b0-8" value="Front-End" style="shape=umlLifeline;perimeter=lifelinePerimeter;whiteSpace=wrap;html=1;container=1;collapsible=0;recursiveResize=0;outlineConnect=0;rounded=1;shadow=0;comic=0;labelBackgroundColor=none;strokeWidth=1;fontFamily=Verdana;fontSize=12;align=center;" parent="1" vertex="1">
          <mxGeometry x="50" y="340" width="100" height="690" as="geometry" />
        </mxCell>
        <mxCell id="IIXyLI-wof4zMuIjt12s-65" value="" style="html=1;points=[];perimeter=orthogonalPerimeter;rounded=0;shadow=0;comic=0;labelBackgroundColor=none;strokeWidth=1;fontFamily=Verdana;fontSize=12;align=center;" parent="7baba1c4bc27f4b0-8" vertex="1">
          <mxGeometry x="45" y="190" width="10" height="50" as="geometry" />
        </mxCell>
        <mxCell id="IIXyLI-wof4zMuIjt12s-99" value="" style="html=1;points=[];perimeter=orthogonalPerimeter;rounded=0;shadow=0;comic=0;labelBackgroundColor=none;strokeWidth=1;fontFamily=Verdana;fontSize=12;align=center;" parent="7baba1c4bc27f4b0-8" vertex="1">
          <mxGeometry x="45" y="550" width="10" height="140" as="geometry" />
        </mxCell>
        <mxCell id="mKsIckOJwRhf_cUDD-dK-6" value="Backend System" style="swimlane;whiteSpace=wrap;html=1;" parent="1" vertex="1">
          <mxGeometry x="180" y="280" width="810" height="760" as="geometry" />
        </mxCell>
        <mxCell id="7baba1c4bc27f4b0-3" value="Database" style="shape=umlLifeline;perimeter=lifelinePerimeter;whiteSpace=wrap;html=1;container=1;collapsible=0;recursiveResize=0;outlineConnect=0;rounded=1;shadow=0;comic=0;labelBackgroundColor=none;strokeWidth=1;fontFamily=Verdana;fontSize=12;align=center;" parent="mKsIckOJwRhf_cUDD-dK-6" vertex="1">
          <mxGeometry x="690" y="70" width="100" height="690" as="geometry" />
        </mxCell>
        <mxCell id="IIXyLI-wof4zMuIjt12s-71" value="" style="html=1;verticalAlign=bottom;endArrow=open;endSize=8;labelBackgroundColor=none;fontFamily=Verdana;fontSize=12;edgeStyle=elbowEdgeStyle;elbow=horizontal;dashed=1;" parent="7baba1c4bc27f4b0-3" source="mKsIckOJwRhf_cUDD-dK-7" edge="1">
          <mxGeometry x="-0.7256" relative="1" as="geometry">
            <mxPoint x="-234.5" y="264.5" as="targetPoint" />
            <Array as="points">
              <mxPoint x="-134.5" y="264.5" />
              <mxPoint x="-104.5" y="264.5" />
            </Array>
            <mxPoint x="227.5" y="264.5" as="sourcePoint" />
            <mxPoint x="1" as="offset" />
          </mxGeometry>
        </mxCell>
        <mxCell id="IIXyLI-wof4zMuIjt12s-103" value="" style="html=1;points=[];perimeter=orthogonalPerimeter;rounded=0;shadow=0;comic=0;labelBackgroundColor=none;strokeWidth=1;fontFamily=Verdana;fontSize=12;align=center;" parent="7baba1c4bc27f4b0-3" vertex="1">
          <mxGeometry x="45" y="120" width="10" height="30" as="geometry" />
        </mxCell>
        <mxCell id="IIXyLI-wof4zMuIjt12s-104" value="" style="endArrow=open;html=1;rounded=0;endFill=0;exitX=1;exitY=0.091;exitDx=0;exitDy=0;exitPerimeter=0;entryX=0.028;entryY=0.264;entryDx=0;entryDy=0;entryPerimeter=0;" parent="7baba1c4bc27f4b0-3" target="mKsIckOJwRhf_cUDD-dK-67" edge="1">
          <mxGeometry width="50" height="50" relative="1" as="geometry">
            <mxPoint x="-100" y="450" as="sourcePoint" />
            <mxPoint x="322" y="450" as="targetPoint" />
          </mxGeometry>
        </mxCell>
        <mxCell id="IIXyLI-wof4zMuIjt12s-112" value="Store Results" style="edgeLabel;html=1;align=center;verticalAlign=middle;resizable=0;points=[];fontSize=12;" parent="IIXyLI-wof4zMuIjt12s-104" vertex="1" connectable="0">
          <mxGeometry x="-0.3123" y="4" relative="1" as="geometry">
            <mxPoint x="24" y="-6" as="offset" />
          </mxGeometry>
        </mxCell>
        <mxCell id="mKsIckOJwRhf_cUDD-dK-67" value="" style="html=1;points=[];perimeter=orthogonalPerimeter;rounded=0;shadow=0;comic=0;labelBackgroundColor=none;strokeWidth=1;fontFamily=Verdana;fontSize=12;align=center;" parent="7baba1c4bc27f4b0-3" vertex="1">
          <mxGeometry x="45" y="440" width="10" height="40" as="geometry" />
        </mxCell>
        <mxCell id="7baba1c4bc27f4b0-4" value="Data Collection" style="shape=umlLifeline;perimeter=lifelinePerimeter;whiteSpace=wrap;html=1;container=1;collapsible=0;recursiveResize=0;outlineConnect=0;rounded=1;shadow=0;comic=0;labelBackgroundColor=none;strokeWidth=1;fontFamily=Verdana;fontSize=12;align=center;" parent="mKsIckOJwRhf_cUDD-dK-6" vertex="1">
          <mxGeometry x="400" y="70" width="100" height="680" as="geometry" />
        </mxCell>
        <mxCell id="IIXyLI-wof4zMuIjt12s-78" value="Analyze_Data(SKU)" style="html=1;verticalAlign=bottom;endArrow=block;labelBackgroundColor=default;fontFamily=Verdana;fontSize=12;edgeStyle=elbowEdgeStyle;elbow=vertical;exitX=1.029;exitY=0.486;exitDx=0;exitDy=0;exitPerimeter=0;entryX=0;entryY=0.07;entryDx=0;entryDy=0;entryPerimeter=0;" parent="7baba1c4bc27f4b0-4" target="mKsIckOJwRhf_cUDD-dK-64" edge="1">
          <mxGeometry x="0.1129" relative="1" as="geometry">
            <mxPoint x="-82.5" y="409" as="sourcePoint" />
            <mxPoint x="52.5" y="410" as="targetPoint" />
            <mxPoint as="offset" />
          </mxGeometry>
        </mxCell>
        <mxCell id="7baba1c4bc27f4b0-2" value="Item&lt;br&gt;Request Management&amp;nbsp;" style="shape=umlLifeline;perimeter=lifelinePerimeter;whiteSpace=wrap;html=1;container=1;collapsible=0;recursiveResize=0;outlineConnect=0;rounded=1;shadow=0;comic=0;labelBackgroundColor=none;strokeWidth=1;fontFamily=Verdana;fontSize=12;align=center;" parent="mKsIckOJwRhf_cUDD-dK-6" vertex="1">
          <mxGeometry x="260" y="70" width="100" height="680" as="geometry" />
        </mxCell>
        <mxCell id="IIXyLI-wof4zMuIjt12s-76" value="" style="endArrow=classic;html=1;rounded=0;" parent="7baba1c4bc27f4b0-2" edge="1">
          <mxGeometry width="50" height="50" relative="1" as="geometry">
            <mxPoint x="190" y="370" as="sourcePoint" />
            <mxPoint x="55" y="370" as="targetPoint" />
          </mxGeometry>
        </mxCell>
        <mxCell id="IIXyLI-wof4zMuIjt12s-74" value="" style="html=1;points=[];perimeter=orthogonalPerimeter;rounded=0;shadow=0;comic=0;labelBackgroundColor=none;strokeWidth=1;fontFamily=Verdana;fontSize=12;align=center;" parent="7baba1c4bc27f4b0-2" vertex="1">
          <mxGeometry x="45" y="360" width="10" height="60" as="geometry" />
        </mxCell>
        <mxCell id="IIXyLI-wof4zMuIjt12s-75" value="" style="endArrow=classic;html=1;rounded=0;exitX=0.4;exitY=0.983;exitDx=0;exitDy=0;exitPerimeter=0;" parent="7baba1c4bc27f4b0-2" source="IIXyLI-wof4zMuIjt12s-74" target="7baba1c4bc27f4b0-2" edge="1">
          <mxGeometry width="50" height="50" relative="1" as="geometry">
            <mxPoint x="100" y="310" as="sourcePoint" />
            <mxPoint x="150" y="260" as="targetPoint" />
          </mxGeometry>
        </mxCell>
        <mxCell id="IIXyLI-wof4zMuIjt12s-55" value="Request Processor" style="swimlane;whiteSpace=wrap;html=1;fillColor=#C7C7C7;strokeWidth=1;opacity=90;gradientColor=none;" parent="mKsIckOJwRhf_cUDD-dK-6" vertex="1">
          <mxGeometry x="250" y="30" width="410" height="100" as="geometry" />
        </mxCell>
        <mxCell id="7baba1c4bc27f4b0-5" value="Data Analysis" style="shape=umlLifeline;perimeter=lifelinePerimeter;whiteSpace=wrap;html=1;container=1;collapsible=0;recursiveResize=0;outlineConnect=0;rounded=1;shadow=0;comic=0;labelBackgroundColor=none;strokeWidth=1;fontFamily=Verdana;fontSize=12;align=center;" parent="IIXyLI-wof4zMuIjt12s-55" vertex="1">
          <mxGeometry x="280" y="40" width="110" height="680" as="geometry" />
        </mxCell>
        <mxCell id="IIXyLI-wof4zMuIjt12s-92" value="Store Results" style="html=1;verticalAlign=bottom;endArrow=block;labelBackgroundColor=default;fontFamily=Verdana;fontSize=12;edgeStyle=elbowEdgeStyle;elbow=vertical;exitX=0.3;exitY=0.889;exitDx=0;exitDy=0;exitPerimeter=0;shadow=0;labelBorderColor=none;" parent="7baba1c4bc27f4b0-5" edge="1">
          <mxGeometry x="0.0339" relative="1" as="geometry">
            <mxPoint x="-70" y="350.98" as="sourcePoint" />
            <mxPoint x="201" y="351" as="targetPoint" />
            <mxPoint as="offset" />
          </mxGeometry>
        </mxCell>
        <mxCell id="mKsIckOJwRhf_cUDD-dK-64" value="" style="html=1;points=[];perimeter=orthogonalPerimeter;rounded=0;shadow=0;comic=0;labelBackgroundColor=none;strokeWidth=1;fontFamily=Verdana;fontSize=12;align=center;" parent="7baba1c4bc27f4b0-5" vertex="1">
          <mxGeometry x="50" y="400" width="10" height="140" as="geometry" />
        </mxCell>
        <mxCell id="IIXyLI-wof4zMuIjt12s-96" value="" style="html=1;verticalAlign=bottom;endArrow=open;endSize=8;labelBackgroundColor=none;fontFamily=Verdana;fontSize=12;edgeStyle=elbowEdgeStyle;elbow=horizontal;dashed=1;entryX=0.787;entryY=0.202;entryDx=0;entryDy=0;entryPerimeter=0;" parent="7baba1c4bc27f4b0-5" target="mKsIckOJwRhf_cUDD-dK-87" edge="1">
          <mxGeometry x="-0.7256" relative="1" as="geometry">
            <mxPoint x="-210" y="529" as="targetPoint" />
            <Array as="points" />
            <mxPoint x="50" y="529.13" as="sourcePoint" />
            <mxPoint x="1" as="offset" />
          </mxGeometry>
        </mxCell>
        <mxCell id="mKsIckOJwRhf_cUDD-dK-87" value="" style="html=1;points=[];perimeter=orthogonalPerimeter;rounded=0;shadow=0;comic=0;labelBackgroundColor=none;strokeWidth=1;fontFamily=Verdana;fontSize=12;align=center;glass=0;fillColor=#FFFFFF;" parent="IIXyLI-wof4zMuIjt12s-55" vertex="1">
          <mxGeometry x="55" y="560" width="10" height="50" as="geometry" />
        </mxCell>
        <mxCell id="IIXyLI-wof4zMuIjt12s-49" value="Session Management" style="shape=umlLifeline;perimeter=lifelinePerimeter;whiteSpace=wrap;html=1;container=1;collapsible=0;recursiveResize=0;outlineConnect=0;rounded=1;shadow=0;comic=0;labelBackgroundColor=none;strokeWidth=1;fontFamily=Verdana;fontSize=12;align=center;" parent="mKsIckOJwRhf_cUDD-dK-6" vertex="1">
          <mxGeometry x="80" y="70" width="100" height="690" as="geometry" />
        </mxCell>
        <mxCell id="IIXyLI-wof4zMuIjt12s-50" value="" style="html=1;points=[];perimeter=orthogonalPerimeter;rounded=0;shadow=0;comic=0;labelBackgroundColor=none;strokeWidth=1;fontFamily=Verdana;fontSize=12;align=center;" parent="IIXyLI-wof4zMuIjt12s-49" vertex="1">
          <mxGeometry x="45" y="100" width="10" height="40" as="geometry" />
        </mxCell>
        <mxCell id="IIXyLI-wof4zMuIjt12s-60" value="" style="html=1;points=[];perimeter=orthogonalPerimeter;rounded=0;shadow=0;comic=0;labelBackgroundColor=none;strokeWidth=1;fontFamily=Verdana;fontSize=12;align=center;" parent="IIXyLI-wof4zMuIjt12s-49" vertex="1">
          <mxGeometry x="45" y="150" width="10" height="40" as="geometry" />
        </mxCell>
        <mxCell id="IIXyLI-wof4zMuIjt12s-98" value="" style="html=1;verticalAlign=bottom;endArrow=open;endSize=8;labelBackgroundColor=none;fontFamily=Verdana;fontSize=12;edgeStyle=elbowEdgeStyle;elbow=horizontal;dashed=1;exitX=-0.082;exitY=0.799;exitDx=0;exitDy=0;exitPerimeter=0;" parent="IIXyLI-wof4zMuIjt12s-49" source="mKsIckOJwRhf_cUDD-dK-87" edge="1">
          <mxGeometry x="-0.7256" relative="1" as="geometry">
            <mxPoint x="-153" y="560.87" as="targetPoint" />
            <Array as="points" />
            <mxPoint x="220" y="561" as="sourcePoint" />
            <mxPoint x="1" as="offset" />
          </mxGeometry>
        </mxCell>
        <mxCell id="IIXyLI-wof4zMuIjt12s-102" value="&lt;font style=&quot;font-size: 12px;&quot;&gt;Return Item Info&lt;/font&gt;" style="edgeLabel;html=1;align=center;verticalAlign=middle;resizable=0;points=[];fontSize=12;" parent="IIXyLI-wof4zMuIjt12s-98" vertex="1" connectable="0">
          <mxGeometry x="0.1008" y="-6" relative="1" as="geometry">
            <mxPoint x="23" y="-5" as="offset" />
          </mxGeometry>
        </mxCell>
        <mxCell id="7baba1c4bc27f4b0-14" value="Store Data from Spreadsheet" style="html=1;verticalAlign=bottom;endArrow=block;labelBackgroundColor=default;fontFamily=Verdana;fontSize=12;edgeStyle=elbowEdgeStyle;elbow=horizontal;exitX=0.532;exitY=0.143;exitDx=0;exitDy=0;exitPerimeter=0;" parent="mKsIckOJwRhf_cUDD-dK-6" edge="1">
          <mxGeometry x="0.0345" relative="1" as="geometry">
            <mxPoint x="134.20000000000005" y="200.1199999999999" as="sourcePoint" />
            <mxPoint x="735" y="200" as="targetPoint" />
            <mxPoint as="offset" />
          </mxGeometry>
        </mxCell>
        <mxCell id="IIXyLI-wof4zMuIjt12s-59" value="Return Session ID" style="html=1;verticalAlign=bottom;endArrow=open;endSize=8;labelBackgroundColor=default;fontFamily=Verdana;fontSize=12;edgeStyle=elbowEdgeStyle;elbow=vertical;dashed=1;exitX=0.2;exitY=0.497;exitDx=0;exitDy=0;exitPerimeter=0;" parent="mKsIckOJwRhf_cUDD-dK-6" edge="1">
          <mxGeometry relative="1" as="geometry">
            <mxPoint x="-80" y="260.12" as="targetPoint" />
            <Array as="points" />
            <mxPoint x="127" y="260.0000000000001" as="sourcePoint" />
          </mxGeometry>
        </mxCell>
        <mxCell id="IIXyLI-wof4zMuIjt12s-90" value="" style="html=1;verticalAlign=bottom;endArrow=open;endSize=8;labelBackgroundColor=none;fontFamily=Verdana;fontSize=12;edgeStyle=elbowEdgeStyle;elbow=horizontal;dashed=1;exitX=0.113;exitY=0.697;exitDx=0;exitDy=0;exitPerimeter=0;" parent="mKsIckOJwRhf_cUDD-dK-6" source="IIXyLI-wof4zMuIjt12s-85" edge="1">
          <mxGeometry x="-0.7256" relative="1" as="geometry">
            <mxPoint x="460" y="440" as="targetPoint" />
            <Array as="points" />
            <mxPoint x="890" y="440" as="sourcePoint" />
            <mxPoint x="1" as="offset" />
          </mxGeometry>
        </mxCell>
        <mxCell id="IIXyLI-wof4zMuIjt12s-85" value="" style="html=1;points=[];perimeter=orthogonalPerimeter;rounded=0;shadow=0;comic=0;labelBackgroundColor=none;strokeWidth=1;fontFamily=Verdana;fontSize=12;align=center;glass=0;fillColor=#FFFFFF;" parent="mKsIckOJwRhf_cUDD-dK-6" vertex="1">
          <mxGeometry x="735" y="413" width="10" height="40" as="geometry" />
        </mxCell>
        <mxCell id="7baba1c4bc27f4b0-21" value="return" style="html=1;verticalAlign=bottom;endArrow=open;endSize=8;labelBackgroundColor=default;fontFamily=Verdana;fontSize=12;edgeStyle=elbowEdgeStyle;elbow=vertical;dashed=1;" parent="mKsIckOJwRhf_cUDD-dK-6" edge="1">
          <mxGeometry x="-0.0004" relative="1" as="geometry">
            <mxPoint x="139.75" y="220" as="targetPoint" />
            <Array as="points">
              <mxPoint x="385.5" y="220" />
              <mxPoint x="415.5" y="220" />
            </Array>
            <mxPoint x="740" y="220" as="sourcePoint" />
            <mxPoint as="offset" />
          </mxGeometry>
        </mxCell>
        <mxCell id="IIXyLI-wof4zMuIjt12s-95" value="" style="html=1;verticalAlign=bottom;endArrow=open;endSize=8;labelBackgroundColor=none;fontFamily=Verdana;fontSize=12;edgeStyle=elbowEdgeStyle;elbow=horizontal;dashed=1;" parent="mKsIckOJwRhf_cUDD-dK-6" edge="1">
          <mxGeometry x="-0.7256" relative="1" as="geometry">
            <mxPoint x="590" y="540" as="targetPoint" />
            <Array as="points" />
            <mxPoint x="735" y="540" as="sourcePoint" />
            <mxPoint x="1" as="offset" />
          </mxGeometry>
        </mxCell>
        <mxCell id="IIXyLI-wof4zMuIjt12s-67" style="edgeStyle=orthogonalEdgeStyle;rounded=0;orthogonalLoop=1;jettySize=auto;html=1;" parent="mKsIckOJwRhf_cUDD-dK-6" edge="1">
          <mxGeometry relative="1" as="geometry">
            <mxPoint x="-72" y="290" as="sourcePoint" />
            <mxPoint x="304" y="290" as="targetPoint" />
          </mxGeometry>
        </mxCell>
        <mxCell id="IIXyLI-wof4zMuIjt12s-68" value="GET Item (SKU, SessionID))" style="edgeLabel;html=1;align=center;verticalAlign=middle;resizable=0;points=[];fontSize=12;" parent="IIXyLI-wof4zMuIjt12s-67" vertex="1" connectable="0">
          <mxGeometry x="0.0957" y="4" relative="1" as="geometry">
            <mxPoint x="1" y="-6" as="offset" />
          </mxGeometry>
        </mxCell>
        <mxCell id="mKsIckOJwRhf_cUDD-dK-7" value="GPT 3.5" style="shape=umlLifeline;perimeter=lifelinePerimeter;whiteSpace=wrap;html=1;container=1;collapsible=0;recursiveResize=0;outlineConnect=0;rounded=1;shadow=0;comic=0;labelBackgroundColor=none;strokeWidth=1;fontFamily=Verdana;fontSize=12;align=center;" parent="1" vertex="1">
          <mxGeometry x="1015" y="350" width="95" height="690" as="geometry" />
        </mxCell>
        <mxCell id="mKsIckOJwRhf_cUDD-dK-24" value="" style="html=1;points=[];perimeter=orthogonalPerimeter;rounded=0;shadow=0;comic=0;labelBackgroundColor=none;strokeWidth=1;fontFamily=Verdana;fontSize=12;align=center;" parent="mKsIckOJwRhf_cUDD-dK-7" vertex="1">
          <mxGeometry x="-385" y="230" width="10" height="150" as="geometry" />
        </mxCell>
        <mxCell id="mKsIckOJwRhf_cUDD-dK-4" value="" style="html=1;points=[];perimeter=orthogonalPerimeter;rounded=0;shadow=0;comic=0;labelBackgroundColor=none;strokeWidth=1;fontFamily=Verdana;fontSize=12;align=center;" parent="mKsIckOJwRhf_cUDD-dK-7" vertex="1">
          <mxGeometry x="-530" y="210" width="10" height="40" as="geometry" />
        </mxCell>
        <mxCell id="mKsIckOJwRhf_cUDD-dK-45" value="" style="html=1;points=[];perimeter=orthogonalPerimeter;rounded=0;shadow=0;comic=0;labelBackgroundColor=none;strokeWidth=1;fontFamily=Verdana;fontSize=12;align=center;" parent="mKsIckOJwRhf_cUDD-dK-7" vertex="1">
          <mxGeometry x="42.5" y="240" width="10" height="40" as="geometry" />
        </mxCell>
        <mxCell id="mKsIckOJwRhf_cUDD-dK-49" value="" style="endArrow=open;html=1;rounded=0;endFill=0;exitX=1;exitY=0.091;exitDx=0;exitDy=0;exitPerimeter=0;" parent="mKsIckOJwRhf_cUDD-dK-7" source="mKsIckOJwRhf_cUDD-dK-24" target="mKsIckOJwRhf_cUDD-dK-7" edge="1">
          <mxGeometry width="50" height="50" relative="1" as="geometry">
            <mxPoint x="-410" y="260" as="sourcePoint" />
            <mxPoint x="45" y="250" as="targetPoint" />
          </mxGeometry>
        </mxCell>
        <mxCell id="mKsIckOJwRhf_cUDD-dK-47" value="" style="endArrow=open;html=1;rounded=0;endFill=0;" parent="mKsIckOJwRhf_cUDD-dK-7" edge="1">
          <mxGeometry width="50" height="50" relative="1" as="geometry">
            <mxPoint x="-375" y="300" as="sourcePoint" />
            <mxPoint x="165" y="300" as="targetPoint" />
          </mxGeometry>
        </mxCell>
        <mxCell id="mKsIckOJwRhf_cUDD-dK-46" value="" style="html=1;points=[];perimeter=orthogonalPerimeter;rounded=0;shadow=0;comic=0;labelBackgroundColor=none;strokeWidth=1;fontFamily=Verdana;fontSize=12;align=center;" parent="mKsIckOJwRhf_cUDD-dK-7" vertex="1">
          <mxGeometry x="165" y="290" width="10" height="40" as="geometry" />
        </mxCell>
        <mxCell id="IIXyLI-wof4zMuIjt12s-72" value="" style="html=1;verticalAlign=bottom;endArrow=open;endSize=8;labelBackgroundColor=none;fontFamily=Verdana;fontSize=12;edgeStyle=elbowEdgeStyle;elbow=horizontal;dashed=1;" parent="mKsIckOJwRhf_cUDD-dK-7" edge="1">
          <mxGeometry x="-0.7256" relative="1" as="geometry">
            <mxPoint x="-375" y="320" as="targetPoint" />
            <Array as="points">
              <mxPoint x="-275" y="320" />
              <mxPoint x="-245" y="320" />
            </Array>
            <mxPoint x="165" y="320" as="sourcePoint" />
            <mxPoint x="1" as="offset" />
          </mxGeometry>
        </mxCell>
        <mxCell id="IIXyLI-wof4zMuIjt12s-113" value="Collect_Data(SKU)" style="html=1;verticalAlign=bottom;endArrow=block;labelBackgroundColor=none;fontFamily=Verdana;fontSize=12;edgeStyle=elbowEdgeStyle;elbow=vertical;exitX=1.029;exitY=0.486;exitDx=0;exitDy=0;exitPerimeter=0;" parent="mKsIckOJwRhf_cUDD-dK-7" edge="1">
          <mxGeometry x="-0.0336" y="1" relative="1" as="geometry">
            <mxPoint x="-520" y="240" as="sourcePoint" />
            <mxPoint x="-385" y="241" as="targetPoint" />
            <mxPoint as="offset" />
          </mxGeometry>
        </mxCell>
        <mxCell id="mKsIckOJwRhf_cUDD-dK-8" value="Web-Scraping (API?)" style="shape=umlLifeline;perimeter=lifelinePerimeter;whiteSpace=wrap;html=1;container=1;collapsible=0;recursiveResize=0;outlineConnect=0;rounded=1;shadow=0;comic=0;labelBackgroundColor=none;strokeWidth=1;fontFamily=Verdana;fontSize=12;align=center;" parent="1" vertex="1">
          <mxGeometry x="1140" y="350" width="100" height="690" as="geometry" />
        </mxCell>
        <mxCell id="mKsIckOJwRhf_cUDD-dK-96" value="&lt;font style=&quot;font-size: 18px;&quot;&gt;&lt;b&gt;SMROS Session Sequence Diagram&lt;/b&gt;&lt;/font&gt;" style="text;html=1;strokeColor=none;fillColor=none;align=center;verticalAlign=middle;whiteSpace=wrap;rounded=0;" parent="1" vertex="1">
          <mxGeometry x="390" y="230" width="415" height="30" as="geometry" />
        </mxCell>
        <mxCell id="IIXyLI-wof4zMuIjt12s-57" value="" style="endArrow=classic;html=1;rounded=0;" parent="1" edge="1">
          <mxGeometry width="50" height="50" relative="1" as="geometry">
            <mxPoint x="100" y="457" as="sourcePoint" />
            <mxPoint x="305" y="457" as="targetPoint" />
          </mxGeometry>
        </mxCell>
        <mxCell id="IIXyLI-wof4zMuIjt12s-61" value="POST Spreadsheet (CSV)" style="edgeLabel;html=1;align=center;verticalAlign=middle;resizable=0;points=[];fontSize=12;" parent="IIXyLI-wof4zMuIjt12s-57" vertex="1" connectable="0">
          <mxGeometry x="0.1449" y="4" relative="1" as="geometry">
            <mxPoint y="-6" as="offset" />
          </mxGeometry>
        </mxCell>
        <mxCell id="7baba1c4bc27f4b0-9" value="" style="html=1;points=[];perimeter=orthogonalPerimeter;rounded=0;shadow=0;comic=0;labelBackgroundColor=none;strokeWidth=1;fontFamily=Verdana;fontSize=12;align=center;" parent="1" vertex="1">
          <mxGeometry x="95" y="430" width="10" height="40" as="geometry" />
        </mxCell>
        <mxCell id="IIXyLI-wof4zMuIjt12s-63" value="" style="endArrow=classic;html=1;rounded=0;" parent="1" source="7baba1c4bc27f4b0-8" target="7baba1c4bc27f4b0-9" edge="1">
          <mxGeometry width="50" height="50" relative="1" as="geometry">
            <mxPoint x="100" y="450" as="sourcePoint" />
            <mxPoint x="310" y="450" as="targetPoint" />
          </mxGeometry>
        </mxCell>
      </root>
    </mxGraphModel>
  </diagram>
</mxfile>
